<?xml version="1.0" encoding="utf-8"?>
<!-- Generator: Adobe Illustrator 23.0.3, SVG Export Plug-In . SVG Version: 6.00 Build 0)  -->
<svg version="1.1" id="Layer_1" xmlns="http://www.w3.org/2000/svg" xmlns:xlink="http://www.w3.org/1999/xlink" x="0px" y="0px"
	 viewBox="0 0 2000 300" style="enable-background:new 0 0 2000 300;" xml:space="preserve">
<style type="text/css">
	.st0{fill:#BDE7FB;stroke:#FFFEFD;stroke-width:2;stroke-miterlimit:10;}
	.st1{fill:#B03B6E;stroke:#FFFEFD;stroke-width:2;stroke-miterlimit:10;}
	.st2{fill:#424651;stroke:#FFFEFD;stroke-width:2;stroke-miterlimit:10;}
	.st3{fill:#094063;stroke:#FFFEFD;stroke-width:2;stroke-miterlimit:10;}
	.st4{fill:#CFE39D;stroke:#FFFEFD;stroke-width:2;stroke-miterlimit:10;}
	.st5{stroke:#FFFEFD;stroke-width:2;stroke-miterlimit:10;}
	.st6{fill:#FFFEFD;stroke:#FFFEFD;stroke-width:2;stroke-miterlimit:10;}
	.st7{fill:#FCB76F;stroke:#000000;stroke-width:0.5;stroke-miterlimit:10;}
	.st8{font-family:'Bauhaus-Heavy-Bold';}
	.st9{font-size:432.1335px;}
</style>
<g>
	<g>
		<path class="st0" d="M122.3,135.24c0.54-16.04,5.12-31.09,11.64-45.57c9.07-20.13,22.3-37.04,40.41-49.85
			c16.26-11.5,34.3-18.17,54.28-19.78c6.69-0.54,13.28-0.77,19.92,0.1c0.91,0.12,2.17,0.45,2.68-0.55c0.61-1.2-0.36-2.18-1.19-2.91
			c-2.08-1.82-4.27-3.52-6.36-5.33c-0.57-0.49-1.78-0.52-1.57-1.53c0.05-0.24,1.46-0.39,2.19-0.28
			c18.44,2.78,31.92,12.27,39.16,29.7c3.82,9.21,5.22,18.81,2.18,28.61c-0.93,2.98,0.98,3.65,3.01,4.5
			c7.98,3.31,15.93,6.69,23.92,9.98c2.95,1.22,4.24,2.4,3.51,6.38c-3.55,19.31-2.84,38.55,2.92,57.45c0.33,1.08,1.28,2.45,0.31,3.14
			c-0.93,0.67-1.97-0.68-2.87-1.29c-14.61-9.81-29.89-18.35-46.32-24.76c-1.42-0.55-2.73-1.01-4.23-0.65
			c-4.26-3.1-9.23-4.51-14.16-6.09c-20.86-6.7-42.26-10.01-64.14-9.72c-7.75,0.1-15.47,1.04-23.14,2.71
			c-15.74,3.41-29.26,10.12-38.59,23.74C124.89,134.65,123.89,135.29,122.3,135.24z M244.99,64.48l0.1,0.1
			c-0.13-0.97-0.31-1.83-1.14-2.58c-4.05-3.64-10.5-3.83-14.88-0.36c-4.56,3.62-5.69,10.02-2.64,14.96
			c2.98,4.84,8.92,6.82,14.06,4.69C247.8,78.28,250.12,69.61,244.99,64.48z"/>
		<path class="st1" d="M243.45,153.62c-12.13,16.07-4.02,30.53,4.41,44.22c8.45,13.72,18.45,26.47,27.46,39.85
			c8.46,12.57,14.6,26.18,16.53,41.41c0.22,1.78,0.23,3.58,0.35,5.37c0.16,2.32-0.66,3.44-3.21,3.86
			c-33.48,5.47-65.23,0.71-95.04-15.79c-1.14-15.13-1.73-30.23,0.97-45.29c4.3-23.97,13.82-45.31,31.7-62.25
			C231.52,160.35,236.48,155.38,243.45,153.62z"/>
		<path class="st2" d="M384.63,151.89c0.28,12.07-4.56,22.53-10.62,32.49c-7.27,11.95-17.03,21.84-27,31.51
			c-0.86,0.83-1.66,2.53-3.13,1.42c-1.12-0.84-0.04-2.16,0.36-3.12c1.6-3.92,3.27-7.82,5.05-11.66c4.59-9.86,3.28-16.96-4.33-24.86
			c-14.55-15.12-21.25-33.68-23.41-54.18c-1.16-10.95-0.63-21.84,1.08-32.7c0.37-2.31,0.85-3.79,3.67-2.4
			c16.89,8.32,33.26,17.37,45.85,31.87C380.45,129.82,384.44,139.99,384.63,151.89z"/>
		<path class="st3" d="M243.45,153.62c-6.97,1.76-11.93,6.74-16.82,11.37c-17.88,16.95-27.4,38.29-31.7,62.25
			c-2.7,15.06-2.11,30.16-0.97,45.29c-7.08-4.02-14.36-7.77-19.66-14.25c-1.54-26.5,9.15-48.91,23.67-69.93
			c9.57-13.85,21.26-25.61,36.1-33.9c4.99-2.79,10.15-5.26,15.96-5.86C248.58,151.23,245.32,151.51,243.45,153.62z"/>
		<path class="st4" d="M338.18,194.13c-13.75,4.22-24.39-2.09-34.18-10.31c-10.21-8.6-19.09-18.5-26.24-29.9
			c-1.47-2.35-4.16-3.69-6.7-4.74c-6.9-2.87-13.92-4.02-21.04-0.59c-5.82,0.59-10.97,3.07-15.96,5.86
			c-14.84,8.29-26.53,20.05-36.1,33.9c-14.52,21.02-25.21,43.43-23.68,69.93c-10.27-6.12-17.58-15.29-24.67-24.56
			c-14.71-19.22-23.31-41.1-27.05-64.91c-1.5-9.52-1.68-19.15-1.05-28.78c-0.09-1.52-0.59-3.11,0.79-4.37l-0.01-0.42
			c1.59,0.04,2.59-0.6,3.55-2c9.33-13.62,22.84-20.33,38.59-23.74c7.66-1.67,15.39-2.61,23.14-2.71
			c21.88-0.29,43.27,3.01,64.14,9.72c4.93,1.58,9.89,2.98,14.15,6.08c0.63,6.74,4.65,11.19,9.87,14.92
			c13.67,9.77,28.83,17.03,43,25.96c8.94,5.63,17.77,11.52,23.39,20.83C345.56,190.02,344.39,192.22,338.18,194.13z"/>
		<path class="st5" d="M244.99,64.48c5.12,5.13,2.8,13.8-4.5,16.82c-5.14,2.13-11.08,0.15-14.06-4.69
			c-3.04-4.94-1.91-11.35,2.64-14.96c4.38-3.47,10.83-3.28,14.88,0.36c0.83,0.75,1.01,1.61,1.14,2.58c-0.67,0.51-1.16,0.04-1.69-0.3
			c-2.02-1.31-3.76-0.76-5.15,0.97c-1.13,1.4-1.25,2.94-0.14,4.5c1.23,1.73,2.93,2.07,4.74,1.4c1.95-0.73,2.51-2.4,2.26-4.39
			C245.03,66,244.34,65.28,244.99,64.48z"/>
		<path class="st6" d="M244.99,64.48c-0.65,0.8,0.03,1.52,0.13,2.27c0.25,1.99-0.31,3.66-2.26,4.39c-1.81,0.68-3.51,0.33-4.74-1.4
			c-1.11-1.56-0.99-3.1,0.14-4.5c1.4-1.72,3.13-2.28,5.15-0.97c0.53,0.34,1.01,0.82,1.69,0.3C245.1,64.58,244.99,64.48,244.99,64.48
			z"/>
	</g>
	<text transform="matrix(0.9539 0 0 1 555.6924 289.0205)" class="st7 st8 st9">Dodoer</text>
</g>
</svg>
