<?xml version="1.0" encoding="utf-8"?>
<!-- Generator: Adobe Illustrator 23.0.3, SVG Export Plug-In . SVG Version: 6.00 Build 0)  -->
<svg version="1.1" id="Layer_1" xmlns="http://www.w3.org/2000/svg" xmlns:xlink="http://www.w3.org/1999/xlink" x="0px" y="0px"
	 viewBox="0 0 300 300" style="enable-background:new 0 0 300 300;" xml:space="preserve">
<style type="text/css">
	.st0{fill:#BDE7FB;stroke:#FFFEFD;stroke-width:2;stroke-miterlimit:10;}
	.st1{fill:#B03B6E;stroke:#FFFEFD;stroke-width:2;stroke-miterlimit:10;}
	.st2{fill:#424651;stroke:#FFFEFD;stroke-width:2;stroke-miterlimit:10;}
	.st3{fill:#094063;stroke:#FFFEFD;stroke-width:2;stroke-miterlimit:10;}
	.st4{fill:#CFE39D;stroke:#FFFEFD;stroke-width:2;stroke-miterlimit:10;}
	.st5{stroke:#FFFEFD;stroke-width:2;stroke-miterlimit:10;}
	.st6{fill:#FFFEFD;stroke:#FFFEFD;stroke-width:2;stroke-miterlimit:10;}
</style>
<g>
	<path class="st0" d="M11.96,134.4c0.57-16.95,5.41-32.86,12.31-48.16c9.59-21.28,23.57-39.14,42.71-52.68
		c17.19-12.15,36.25-19.2,57.36-20.9c7.07-0.57,14.04-0.81,21.06,0.11c0.96,0.13,2.29,0.48,2.83-0.59c0.64-1.27-0.38-2.3-1.26-3.08
		c-2.2-1.93-4.51-3.72-6.72-5.63c-0.6-0.52-1.88-0.55-1.66-1.62c0.05-0.26,1.54-0.41,2.32-0.3c19.49,2.94,33.74,12.97,41.38,31.39
		c4.04,9.73,5.52,19.88,2.3,30.23c-0.98,3.15,1.03,3.86,3.18,4.75c8.43,3.5,16.84,7.07,25.28,10.54c3.12,1.28,4.48,2.54,3.71,6.75
		c-3.75,20.41-3,40.74,3.08,60.71c0.35,1.14,1.35,2.58,0.33,3.32c-0.98,0.71-2.08-0.72-3.03-1.36
		c-15.44-10.36-31.59-19.39-48.96-26.16c-1.5-0.59-2.89-1.07-4.47-0.69c-4.5-3.27-9.75-4.76-14.96-6.44
		c-22.05-7.08-44.66-10.58-67.79-10.27c-8.19,0.11-16.35,1.1-24.46,2.86c-16.64,3.6-30.92,10.7-40.78,25.09
		C14.71,133.77,13.64,134.45,11.96,134.4z M141.64,59.62l0.11,0.11c-0.14-1.02-0.32-1.93-1.2-2.72c-4.28-3.84-11.1-4.05-15.73-0.38
		c-4.81,3.82-6.01,10.59-2.79,15.81c3.15,5.11,9.43,7.21,14.86,4.96C144.6,74.2,147.05,65.04,141.64,59.62z"/>
	<path class="st1" d="M140,153.82c-12.82,16.99-4.25,32.26,4.67,46.74c8.93,14.5,19.5,27.97,29.02,42.12
		c8.94,13.28,15.43,27.67,17.47,43.76c0.24,1.88,0.25,3.78,0.37,5.67c0.16,2.45-0.69,3.63-3.4,4.07
		c-35.38,5.78-68.94,0.75-100.45-16.68c-1.2-15.99-1.83-31.95,1.03-47.86c4.55-25.33,14.61-47.88,33.5-65.79
		C127.39,160.94,132.63,155.68,140,153.82z"/>
	<path class="st2" d="M289.21,152c0.29,12.75-4.82,23.81-11.23,34.34c-7.69,12.63-18,23.08-28.54,33.3
		c-0.91,0.88-1.76,2.67-3.31,1.5c-1.19-0.89-0.04-2.28,0.38-3.3c1.69-4.14,3.45-8.26,5.34-12.32c4.85-10.42,3.46-17.92-4.57-26.28
		c-15.37-15.98-22.45-35.6-24.74-57.26c-1.22-11.58-0.67-23.08,1.14-34.56c0.39-2.45,0.9-4.01,3.88-2.54
		c17.85,8.79,35.15,18.36,48.46,33.68C284.79,128.67,289.01,139.43,289.21,152z"/>
	<path class="st3" d="M140,153.82c-7.37,1.86-12.61,7.12-17.78,12.02c-18.89,17.91-28.96,40.46-33.5,65.79
		c-2.86,15.92-2.23,31.88-1.03,47.86c-7.48-4.25-15.18-8.21-20.78-15.06c-1.62-28.01,9.67-51.69,25.02-73.91
		c10.11-14.64,22.47-27.07,38.16-35.83c5.27-2.95,10.72-5.56,16.87-6.19C145.42,151.3,141.98,151.6,140,153.82z"/>
	<path class="st4" d="M240.12,196.63c-14.53,4.46-25.78-2.21-36.12-10.9c-10.8-9.08-20.18-19.55-27.73-31.6
		c-1.56-2.48-4.4-3.9-7.08-5.01c-7.29-3.03-14.72-4.25-22.23-0.62c-6.15,0.62-11.59,3.25-16.87,6.19
		c-15.68,8.76-28.04,21.19-38.15,35.83c-15.35,22.21-26.64,45.9-25.02,73.91c-10.86-6.47-18.58-16.16-26.07-25.96
		c-15.54-20.31-24.64-43.44-28.59-68.6c-1.59-10.06-1.77-20.24-1.11-30.42c-0.09-1.61-0.62-3.29,0.84-4.61l-0.01-0.45
		c1.68,0.04,2.74-0.63,3.75-2.12c9.86-14.39,24.14-21.49,40.79-25.09c8.1-1.76,16.26-2.76,24.45-2.86
		c23.13-0.31,45.73,3.18,67.79,10.28c5.21,1.67,10.45,3.15,14.95,6.43c0.66,7.12,4.92,11.82,10.43,15.77
		c14.45,10.33,30.47,18,45.44,27.44c9.45,5.95,18.78,12.17,24.72,22.02C247.92,192.29,246.68,194.62,240.12,196.63z"/>
	<path class="st5" d="M141.64,59.62c5.41,5.42,2.96,14.58-4.76,17.78c-5.43,2.25-11.71,0.15-14.86-4.96
		c-3.22-5.23-2.02-11.99,2.79-15.81c4.63-3.67,11.44-3.46,15.73,0.38c0.88,0.79,1.06,1.7,1.2,2.72c-0.71,0.54-1.22,0.04-1.78-0.32
		c-2.13-1.39-3.97-0.8-5.44,1.02c-1.2,1.48-1.32,3.11-0.15,4.76c1.3,1.83,3.1,2.19,5.01,1.48c2.06-0.77,2.65-2.53,2.39-4.64
		C141.67,61.23,140.95,60.46,141.64,59.62z"/>
	<path class="st6" d="M141.64,59.62c-0.69,0.84,0.03,1.61,0.13,2.4c0.27,2.1-0.33,3.87-2.39,4.64c-1.91,0.71-3.71,0.35-5.01-1.48
		c-1.17-1.65-1.05-3.27,0.15-4.76c1.47-1.82,3.31-2.41,5.44-1.02c0.56,0.36,1.07,0.86,1.78,0.32
		C141.74,59.73,141.64,59.62,141.64,59.62z"/>
</g>
</svg>
