<?xml version="1.0" encoding="utf-8"?>
<!-- Generator: Adobe Illustrator 23.0.3, SVG Export Plug-In . SVG Version: 6.00 Build 0)  -->
<svg version="1.1" id="Layer_1" xmlns="http://www.w3.org/2000/svg" xmlns:xlink="http://www.w3.org/1999/xlink" x="0px" y="0px"
	 viewBox="0 0 1672 300" style="enable-background:new 0 0 1672 300;" xml:space="preserve">
<style type="text/css">
	.st0{fill:#BDE7FB;stroke:#FFFEFD;stroke-width:2;stroke-miterlimit:10;}
	.st1{fill:#B03B6E;stroke:#FFFEFD;stroke-width:2;stroke-miterlimit:10;}
	.st2{fill:#424651;stroke:#FFFEFD;stroke-width:2;stroke-miterlimit:10;}
	.st3{fill:#094063;stroke:#FFFEFD;stroke-width:2;stroke-miterlimit:10;}
	.st4{fill:#CFE39D;stroke:#FFFEFD;stroke-width:2;stroke-miterlimit:10;}
	.st5{stroke:#FFFEFD;stroke-width:2;stroke-miterlimit:10;}
	.st6{fill:#FFFEFD;stroke:#FFFEFD;stroke-width:2;stroke-miterlimit:10;}
	.st7{fill:#FCB76F;stroke:#000000;stroke-width:0.5;stroke-miterlimit:10;}
</style>
<g>
	<g>
		<path class="st0" d="M5.75,135.24c0.54-16.04,5.12-31.09,11.64-45.57c9.07-20.13,22.3-37.04,40.41-49.85
			c16.26-11.5,34.3-18.17,54.28-19.78c6.69-0.54,13.28-0.77,19.92,0.1c0.91,0.12,2.17,0.45,2.68-0.55c0.61-1.2-0.36-2.18-1.19-2.91
			c-2.08-1.82-4.27-3.52-6.36-5.33c-0.57-0.49-1.78-0.52-1.57-1.53c0.05-0.24,1.46-0.39,2.19-0.28
			c18.44,2.78,31.92,12.27,39.16,29.7c3.82,9.21,5.22,18.81,2.18,28.61c-0.93,2.98,0.98,3.65,3.01,4.5
			c7.98,3.31,15.93,6.69,23.92,9.98c2.95,1.22,4.24,2.4,3.51,6.38c-3.55,19.31-2.84,38.55,2.92,57.45c0.33,1.08,1.28,2.45,0.31,3.14
			c-0.93,0.67-1.97-0.68-2.87-1.29c-14.61-9.81-29.89-18.35-46.32-24.76c-1.42-0.55-2.73-1.01-4.23-0.65
			c-4.26-3.1-9.23-4.51-14.16-6.09c-20.86-6.7-42.26-10.01-64.14-9.72c-7.75,0.1-15.47,1.04-23.14,2.71
			c-15.74,3.41-29.26,10.12-38.59,23.74C8.35,134.65,7.34,135.29,5.75,135.24z M128.45,64.48l0.1,0.1
			c-0.13-0.97-0.31-1.83-1.14-2.58c-4.05-3.64-10.5-3.83-14.88-0.36c-4.56,3.62-5.69,10.02-2.64,14.96
			c2.98,4.84,8.92,6.82,14.06,4.69C131.26,78.28,133.57,69.61,128.45,64.48z"/>
		<path class="st1" d="M126.91,153.62c-12.13,16.07-4.02,30.53,4.41,44.22c8.45,13.72,18.45,26.47,27.46,39.85
			c8.46,12.57,14.6,26.18,16.53,41.41c0.22,1.78,0.23,3.58,0.35,5.37c0.16,2.32-0.66,3.44-3.21,3.86
			c-33.48,5.47-65.23,0.71-95.04-15.79c-1.14-15.13-1.73-30.23,0.97-45.29c4.3-23.97,13.82-45.31,31.7-62.25
			C114.98,160.35,119.93,155.38,126.91,153.62z"/>
		<path class="st2" d="M268.09,151.89c0.28,12.07-4.56,22.53-10.62,32.49c-7.27,11.95-17.03,21.84-27,31.51
			c-0.86,0.83-1.66,2.53-3.13,1.42c-1.12-0.84-0.04-2.16,0.36-3.12c1.6-3.92,3.27-7.82,5.05-11.66c4.59-9.86,3.28-16.96-4.33-24.86
			c-14.55-15.12-21.25-33.68-23.41-54.18c-1.16-10.95-0.63-21.84,1.08-32.7c0.37-2.31,0.85-3.79,3.67-2.4
			c16.89,8.32,33.26,17.37,45.85,31.87C263.91,129.82,267.9,139.99,268.09,151.89z"/>
		<path class="st3" d="M126.91,153.62c-6.97,1.76-11.93,6.74-16.82,11.37c-17.88,16.95-27.4,38.29-31.7,62.25
			c-2.7,15.06-2.11,30.16-0.97,45.29c-7.08-4.02-14.36-7.77-19.66-14.25c-1.54-26.5,9.15-48.91,23.67-69.93
			c9.57-13.85,21.26-25.61,36.1-33.9c4.99-2.79,10.15-5.26,15.96-5.86C132.03,151.23,128.77,151.51,126.91,153.62z"/>
		<path class="st4" d="M221.64,194.13c-13.75,4.22-24.39-2.09-34.18-10.31c-10.21-8.6-19.09-18.5-26.24-29.9
			c-1.47-2.35-4.16-3.69-6.7-4.74c-6.9-2.87-13.92-4.02-21.04-0.59c-5.82,0.59-10.97,3.07-15.96,5.86
			c-14.84,8.29-26.53,20.05-36.1,33.9c-14.52,21.02-25.21,43.43-23.68,69.93c-10.27-6.12-17.58-15.29-24.67-24.56
			c-14.71-19.22-23.31-41.1-27.05-64.91c-1.5-9.52-1.68-19.15-1.05-28.78c-0.09-1.52-0.59-3.11,0.79-4.37l-0.01-0.42
			c1.59,0.04,2.59-0.6,3.55-2c9.33-13.62,22.84-20.33,38.59-23.74c7.66-1.67,15.39-2.61,23.14-2.71
			c21.88-0.29,43.27,3.01,64.14,9.72c4.93,1.58,9.89,2.98,14.15,6.08c0.63,6.74,4.65,11.19,9.87,14.92
			c13.67,9.77,28.83,17.03,43,25.96c8.94,5.63,17.77,11.52,23.39,20.83C229.02,190.02,227.85,192.22,221.64,194.13z"/>
		<path class="st5" d="M128.45,64.48c5.12,5.13,2.8,13.8-4.5,16.82c-5.14,2.13-11.08,0.15-14.06-4.69
			c-3.04-4.94-1.91-11.35,2.64-14.96c4.38-3.47,10.83-3.28,14.88,0.36c0.83,0.75,1.01,1.61,1.14,2.58c-0.67,0.51-1.16,0.04-1.69-0.3
			c-2.02-1.31-3.76-0.76-5.15,0.97c-1.13,1.4-1.25,2.94-0.14,4.5c1.23,1.73,2.93,2.07,4.74,1.4c1.95-0.73,2.51-2.4,2.26-4.39
			C128.48,66,127.8,65.28,128.45,64.48z"/>
		<path class="st6" d="M128.45,64.48c-0.65,0.8,0.03,1.52,0.13,2.27c0.25,1.99-0.31,3.66-2.26,4.39c-1.81,0.68-3.51,0.33-4.74-1.4
			c-1.11-1.56-0.99-3.1,0.14-4.5c1.4-1.72,3.13-2.28,5.15-0.97c0.53,0.34,1.01,0.82,1.69,0.3
			C128.55,64.58,128.45,64.48,128.45,64.48z"/>
	</g>
	<g>
		<path class="st7" d="M371.34,13.32h94.39c37.1,0.29,67.12,13.04,90.07,38.24c22.94,25.21,35.24,57.98,36.89,98.31v6.48
			c0,40.05-12.16,72.1-36.48,96.15c-24.32,24.06-54.48,36.08-90.48,36.08v-80.38c10.44,0.29,19.92-4.25,28.44-13.61
			c8.51-9.36,12.78-23.26,12.78-41.7c0-21.61-5.15-36.73-15.46-45.37c-10.31-8.64-22.74-12.96-37.3-12.96v193.6h-82.85V13.32z"/>
		<path class="st7" d="M620.31,189.2c0-27.37,9.07-51.13,27.21-71.3c18.14-20.16,40.53-30.25,67.19-30.25
			c30.77,0,55.16,10.15,73.17,30.47c18,20.31,27.13,42.71,27.41,67.2c0,0.29,0,0.51,0,0.65c0,0.15,0,0.36,0,0.65
			c0,33.71-10.24,59.92-30.71,78.65c-20.47,18.73-42.94,28.37-67.4,28.95c-0.55,0-1.03,0-1.44,0s-0.76,0-1.03,0
			c-4.4,0-9.07-0.43-14.01-1.3s-9.89-2.16-14.84-3.89c-16.49-6.05-31.53-17.29-45.14-33.71c-13.6-16.42-20.4-38.31-20.4-65.68V189.2
			z M693.68,189.2c0,8.07,2.4,14.33,7.21,18.8c4.8,4.47,10.1,6.85,15.87,7.13c0.27,0,0.48,0,0.62,0c0.14,0,0.34,0,0.62,0
			c5.77,0,11.06-2.23,15.87-6.7c4.8-4.46,7.21-10.73,7.21-18.8c0-6.91-2-12.32-5.98-16.21c-3.99-3.89-8.45-6.27-13.4-7.13
			c-0.55-0.28-1.17-0.43-1.85-0.43c-0.69,0-1.31,0-1.85,0c-0.28,0-0.48,0-0.62,0c-0.14,0-0.35,0-0.62,0
			c-5.77,0.29-11.06,2.53-15.87,6.7c-4.81,4.18-7.21,9.87-7.21,17.07V189.2z"/>
		<path class="st7" d="M1042.81,10.29v160.32c0,37.74-7.56,67.78-22.67,90.1c-15.12,22.33-41.08,33.49-77.91,33.49
			c-26.93,0-50.02-10.01-69.25-30.03c-19.24-20.02-28.85-44.87-28.85-74.54c0-0.28,0.06-0.72,0.21-1.3
			c0.13-0.57,0.21-1.15,0.21-1.73c0-0.57,0.06-1.15,0.21-1.73c0.13-0.57,0.21-1.01,0.21-1.3c1.37-32.55,10.58-56.97,27.62-73.25
			c17.04-16.27,38.88-24.42,65.54-24.42c2.47,0,5.08,0.07,7.83,0.22c2.74,0.15,5.49,0.51,8.24,1.08c1.1,0,2.13,0.07,3.09,0.22
			c0.96,0.15,1.85,0.22,2.68,0.22v73.89c-0.83,0-1.72,0-2.68,0c-0.97,0-1.85-0.14-2.68-0.43c-1.65,0-3.23-0.07-4.74-0.22
			c-1.51-0.14-2.82-0.22-3.92-0.22c-9.89,0-17.45,2.88-22.67,8.64c-5.22,5.77-7.83,13.83-7.83,24.2c0,7.5,2.47,13.47,7.42,17.93
			c4.95,4.47,10.44,6.7,16.49,6.7c0.55,0,1.09,0,1.65,0c0.55,0,1.1,0,1.65,0c6.32-0.86,12.22-3.96,17.72-9.29
			c5.49-5.33,8.24-12.75,8.24-22.25V10.29H1042.81z"/>
		<path class="st7" d="M1075.36,189.2c0-27.37,9.07-51.13,27.21-71.3c18.14-20.16,40.53-30.25,67.19-30.25
			c30.77,0,55.16,10.15,73.17,30.47c18,20.31,27.13,42.71,27.41,67.2c0,0.29,0,0.51,0,0.65c0,0.15,0,0.36,0,0.65
			c0,33.71-10.24,59.92-30.71,78.65c-20.47,18.73-42.94,28.37-67.39,28.95c-0.55,0-1.03,0-1.44,0s-0.76,0-1.03,0
			c-4.4,0-9.07-0.43-14.01-1.3c-4.95-0.86-9.89-2.16-14.84-3.89c-16.49-6.05-31.53-17.29-45.14-33.71
			c-13.6-16.42-20.4-38.31-20.4-65.68V189.2z M1148.74,189.2c0,8.07,2.4,14.33,7.21,18.8c4.8,4.47,10.1,6.85,15.87,7.13
			c0.27,0,0.48,0,0.62,0c0.14,0,0.34,0,0.62,0c5.77,0,11.06-2.23,15.87-6.7c4.8-4.46,7.21-10.73,7.21-18.8
			c0-6.91-2-12.32-5.98-16.21c-3.99-3.89-8.45-6.27-13.4-7.13c-0.55-0.28-1.17-0.43-1.85-0.43c-0.69,0-1.31,0-1.86,0
			c-0.28,0-0.48,0-0.62,0c-0.14,0-0.35,0-0.62,0c-5.77,0.29-11.06,2.53-15.87,6.7c-4.81,4.18-7.21,9.87-7.21,17.07V189.2z"/>
		<path class="st7" d="M1494.98,161.54l-94.39,56.18l-21.43-40.62l35.86-21.61c-1.65-1.44-3.5-2.88-5.57-4.32
			c-2.06-1.44-4.19-2.44-6.39-3.03c-0.82-0.28-1.65-0.5-2.47-0.65c-0.82-0.14-1.65-0.22-2.47-0.22c-0.55,0-1.17,0.07-1.86,0.22
			c-0.69,0.15-1.44,0.22-2.27,0.22c-6.6,1.45-12.64,5.83-18.14,13.18c-5.5,7.35-8.24,15.92-8.24,25.71c0,13.25,3.5,23.7,10.51,31.33
			c7.01,7.64,15.59,11.45,25.76,11.45c3.85,0,7.97-0.65,12.37-1.94c4.39-1.3,8.79-3.09,13.19-5.4c4.12-2.3,8.17-5.04,12.16-8.21
			c3.98-3.17,7.76-6.91,11.33-11.24l42.04,42.78c-9.35,14.41-21.85,25.79-37.51,34.14c-15.66,8.36-32.02,13.4-49.05,15.13
			c-1.93,0-3.78,0.07-5.56,0.22c-1.79,0.14-3.65,0.22-5.56,0.22c-23.64,0-45.41-7.78-65.33-23.33
			c-19.93-15.56-30.57-40.62-31.95-75.19c0-0.28-0.07-0.65-0.21-1.08c-0.14-0.43-0.21-0.93-0.21-1.51c0-0.57-0.07-1.08-0.21-1.51
			c-0.14-0.43-0.21-0.79-0.21-1.08c0-29.67,7.83-52.86,23.5-69.57c15.66-16.7,32.83-27.22,51.52-31.55c3.3-0.86,6.66-1.51,10.1-1.94
			c3.43-0.43,6.8-0.65,10.1-0.65c29.4,0,51.66,7.42,66.78,22.25c15.11,14.84,26.38,32.19,33.8,52.07V161.54z"/>
		<path class="st7" d="M1523.83,94.13h70.49v24.63c5.49-6.91,11.13-12.46,16.9-16.64c5.77-4.17,11.54-7.41,17.31-9.72
			c6.59-2.3,13.25-3.67,19.99-4.11c6.73-0.43,13.25-0.65,19.58-0.65v67.84c-1.38,0.29-2.88,0.43-4.53,0.43c-1.65,0-3.16,0-4.53,0
			c-14.84,0.58-28.38,3.75-40.6,9.51c-12.23,5.77-18.34,19.16-18.34,40.19v82.54h-76.26V94.13z"/>
	</g>
</g>
</svg>
